<svg width="24" height="22" viewBox="0 0 24 22" fill="none" xmlns="http://www.w3.org/2000/svg">
<rect width="23.6604" height="22" rx="9.13208" fill="#00D09E"/>
<path d="M7.03896 9.56584H16.8971M7.4679 4.98047V7.33871M10.2382 4.98047V7.33871M13.6997 4.98047V7.33871M16.4701 4.98047V7.33871M5.93195 6.33847H18.006C18.1481 6.33847 18.2843 6.39491 18.3848 6.49538C18.4853 6.59584 18.5417 6.7321 18.5417 6.87418V15.5055C18.5417 15.7966 18.4261 16.0758 18.2202 16.2816C18.0144 16.4875 17.7352 16.6031 17.4441 16.6031H6.49388C6.20277 16.6031 5.92358 16.4875 5.71773 16.2816C5.51188 16.0758 5.39624 15.7966 5.39624 15.5055V6.87418C5.39624 6.7321 5.45268 6.59584 5.55315 6.49538C5.65361 6.39491 5.78987 6.33847 5.93195 6.33847Z" stroke="#093030" stroke-width="0.936554" stroke-linecap="round" stroke-linejoin="round"/>
</svg>
