<svg width="48" height="48" viewBox="0 0 48 48" fill="none" xmlns="http://www.w3.org/2000/svg">
<g clip-path="url(#clip0_11044_1575)">
<path d="M45.08 12.84C44.8424 11.8908 44.3586 11.0211 43.6773 10.3188C42.9961 9.61648 42.1415 9.10637 41.2 8.84C37.76 8 24 8 24 8C24 8 10.24 8 6.80001 8.92C5.85851 9.18637 5.00397 9.69648 4.32271 10.3988C3.64145 11.1011 3.15759 11.9708 2.92001 12.92C2.29044 16.4111 1.98249 19.9526 2.00001 23.5C1.97757 27.0741 2.28555 30.6426 2.92001 34.16C3.18193 35.0797 3.67663 35.9163 4.3563 36.589C5.03598 37.2616 5.87766 37.7476 6.80001 38C10.24 38.92 24 38.92 24 38.92C24 38.92 37.76 38.92 41.2 38C42.1415 37.7336 42.9961 37.2235 43.6773 36.5212C44.3586 35.8189 44.8424 34.9492 45.08 34C45.7047 30.5352 46.0127 27.0207 46 23.5C46.0225 19.9259 45.7145 16.3574 45.08 12.84Z" stroke="#1E1E1E" stroke-width="4" stroke-linecap="round" stroke-linejoin="round"/>
<path d="M19.5 30.04L31 23.5L19.5 16.96V30.04Z" stroke="#1E1E1E" stroke-width="4" stroke-linecap="round" stroke-linejoin="round"/>
</g>
<defs>
<clipPath id="clip0_11044_1575">
<rect width="48" height="48" fill="white"/>
</clipPath>
</defs>
</svg>
