<svg width="105" height="98" viewBox="0 0 105 98" fill="none" xmlns="http://www.w3.org/2000/svg">
<rect width="105" height="97.6316" rx="25.7895" fill="#6DB6FE"/>
<g clip-path="url(#clip0_31_29719)">
<path d="M49.9 58.5898H59.9C60.8195 58.5872 61.7005 58.2207 62.3507 57.5706C63.0009 56.9204 63.3673 56.0393 63.37 55.1198C63.3647 54.2021 62.9972 53.3236 62.3473 52.6755C61.6974 52.0275 60.8178 51.6624 59.9 51.6598H53.5599C52.1372 51.643 50.725 51.4138 49.37 50.9798C46.86 50.4398 42.8 50.4098 40.94 55.1198H36.94M63.3199 55.1198L72.3199 49.8198C73.1053 49.3439 74.0476 49.1988 74.9398 49.4162C75.832 49.6337 76.6015 50.1959 77.0799 50.9798C77.554 51.7647 77.6993 52.705 77.484 53.5963C77.2686 54.4876 76.7102 55.2579 75.93 55.7398L64.16 64.5998C62.0617 66.179 59.5062 67.0319 56.88 67.0298H36.88M59.9801 39.4298L57.5299 41.8898C57.515 41.9053 57.4971 41.9175 57.4774 41.9259C57.4576 41.9343 57.4363 41.9385 57.4149 41.9385C57.3934 41.9385 57.3724 41.9343 57.3526 41.9259C57.3329 41.9175 57.3148 41.9053 57.2999 41.8898L55.7899 39.4198H49.19C48.6096 40.9299 47.5849 42.2286 46.2513 43.1445C44.9177 44.0603 43.3379 44.5503 41.7201 44.5498C39.5983 44.5498 37.5634 43.707 36.0631 42.2067C34.5628 40.7064 33.7201 38.6715 33.7201 36.5498C33.7201 34.4281 34.5628 32.3932 36.0631 30.8929C37.5634 29.3927 39.5983 28.5498 41.7201 28.5498C43.3367 28.5485 44.9156 29.0371 46.2491 29.9511C47.5826 30.865 48.608 32.1615 49.19 33.6698H63.9L67.66 36.8598L62.66 42.0298L59.9801 39.4798M36.9 53.3498C36.9 53.2066 36.8431 53.0692 36.7418 52.968C36.6405 52.8667 36.5032 52.8098 36.36 52.8098H31.0899C30.9467 52.8098 30.8094 52.8667 30.7081 52.968C30.6068 53.0692 30.5499 53.2066 30.5499 53.3498V68.7798C30.5499 68.923 30.6068 69.0604 30.7081 69.1616C30.8094 69.2629 30.9467 69.3198 31.0899 69.3198H36.36C36.5032 69.3198 36.6405 69.2629 36.7418 69.1616C36.8431 69.0604 36.9 68.923 36.9 68.7798V53.3498Z" stroke="#F1FFF3" stroke-width="3" stroke-linecap="round" stroke-linejoin="round"/>
<path d="M39.57 38.1999C40.7629 38.1999 41.73 37.2328 41.73 36.0399C41.73 34.8469 40.7629 33.8799 39.57 33.8799C38.377 33.8799 37.41 34.8469 37.41 36.0399C37.41 37.2328 38.377 38.1999 39.57 38.1999Z" fill="#F1FFF3"/>
</g>
<defs>
<clipPath id="clip0_31_29719">
<rect width="50.09" height="43.82" fill="white" transform="translate(29 27)"/>
</clipPath>
</defs>
</svg>
