<svg width="53" height="85" viewBox="0 0 53 85" fill="none" xmlns="http://www.w3.org/2000/svg">
<path d="M8.83332 67.2918C7.61874 67.2918 6.57898 66.5982 5.71405 65.2111C4.84912 63.8239 4.41666 62.1564 4.41666 60.2085V24.7918C4.41666 22.8439 4.84912 21.1764 5.71405 19.7892C6.57898 18.4021 7.61874 17.7085 8.83332 17.7085H44.1667C45.3812 17.7085 46.421 18.4021 47.2859 19.7892C48.1509 21.1764 48.5833 22.8439 48.5833 24.7918V60.2085C48.5833 62.1564 48.1509 63.8239 47.2859 65.2111C46.421 66.5982 45.3812 67.2918 44.1667 67.2918H8.83332ZM8.83332 60.2085H44.1667V24.7918H8.83332V60.2085ZM17.6667 56.6668H35.3333V49.5835H17.6667V56.6668ZM11.0417 46.0418H15.4583V38.9585H11.0417V46.0418ZM17.6667 46.0418H22.0833V38.9585H17.6667V46.0418ZM24.2917 46.0418H28.7083V38.9585H24.2917V46.0418ZM30.9167 46.0418H35.3333V38.9585H30.9167V46.0418ZM37.5417 46.0418H41.9583V38.9585H37.5417V46.0418ZM11.0417 35.4168H15.4583V28.3335H11.0417V35.4168ZM17.6667 35.4168H22.0833V28.3335H17.6667V35.4168ZM24.2917 35.4168H28.7083V28.3335H24.2917V35.4168ZM30.9167 35.4168H35.3333V28.3335H30.9167V35.4168ZM37.5417 35.4168H41.9583V28.3335H37.5417V35.4168Z" fill="#F1FFF3"/>
</svg>
