<svg width="53" height="85" viewBox="0 0 53 85" fill="none" xmlns="http://www.w3.org/2000/svg">
<path d="M8.83334 67.2913C7.61875 67.2913 6.579 66.5978 5.71407 65.2106C4.84914 63.8235 4.41667 62.1559 4.41667 60.208V24.7913C4.41667 22.8434 4.84914 21.1759 5.71407 19.7887C6.579 18.4016 7.61875 17.708 8.83334 17.708H44.1667C45.3813 17.708 46.421 18.4016 47.2859 19.7887C48.1509 21.1759 48.5833 22.8434 48.5833 24.7913V60.208C48.5833 62.1559 48.1509 63.8235 47.2859 65.2106C46.421 66.5978 45.3813 67.2913 44.1667 67.2913H8.83334ZM8.83334 60.208H44.1667V24.7913H8.83334V60.208ZM17.6667 56.6663H35.3333V49.583H17.6667V56.6663ZM11.0417 46.0413H15.4583V38.958H11.0417V46.0413ZM17.6667 46.0413H22.0833V38.958H17.6667V46.0413ZM24.2917 46.0413H28.7083V38.958H24.2917V46.0413ZM30.9167 46.0413H35.3333V38.958H30.9167V46.0413ZM37.5417 46.0413H41.9583V38.958H37.5417V46.0413ZM11.0417 35.4163H15.4583V28.333H11.0417V35.4163ZM17.6667 35.4163H22.0833V28.333H17.6667V35.4163ZM24.2917 35.4163H28.7083V28.333H24.2917V35.4163ZM30.9167 35.4163H35.3333V28.333H30.9167V35.4163ZM37.5417 35.4163H41.9583V28.333H37.5417V35.4163Z" fill="#F1FFF3"/>
</svg>
