<svg width="32" height="32" viewBox="0 0 32 32" fill="none" xmlns="http://www.w3.org/2000/svg">
<path d="M16.0003 18.667C14.8892 18.667 13.9448 18.2781 13.167 17.5003C12.3892 16.7225 12.0003 15.7781 12.0003 14.667V6.66699C12.0003 5.55588 12.3892 4.61144 13.167 3.83366C13.9448 3.05588 14.8892 2.66699 16.0003 2.66699C17.1114 2.66699 18.0559 3.05588 18.8337 3.83366C19.6114 4.61144 20.0003 5.55588 20.0003 6.66699V14.667C20.0003 15.7781 19.6114 16.7225 18.8337 17.5003C18.0559 18.2781 17.1114 18.667 16.0003 18.667ZM14.667 28.0003V23.9003C12.3559 23.5892 10.4448 22.5559 8.93366 20.8003C7.42255 19.0448 6.66699 17.0003 6.66699 14.667H9.33366C9.33366 16.5114 9.98366 18.0837 11.2837 19.3837C12.5837 20.6837 14.1559 21.3337 16.0003 21.3337C17.8448 21.3337 19.417 20.6837 20.717 19.3837C22.017 18.0837 22.667 16.5114 22.667 14.667H25.3337C25.3337 17.0003 24.5781 19.0448 23.067 20.8003C21.5559 22.5559 19.6448 23.5892 17.3337 23.9003V28.0003H14.667ZM16.0003 16.0003C16.3781 16.0003 16.6948 15.8725 16.9503 15.617C17.2059 15.3614 17.3337 15.0448 17.3337 14.667V6.66699C17.3337 6.28921 17.2059 5.97255 16.9503 5.71699C16.6948 5.46144 16.3781 5.33366 16.0003 5.33366C15.6225 5.33366 15.3059 5.46144 15.0503 5.71699C14.7948 5.97255 14.667 6.28921 14.667 6.66699V14.667C14.667 15.0448 14.7948 15.3614 15.0503 15.617C15.3059 15.8725 15.6225 16.0003 16.0003 16.0003Z" fill="#1D1B20"/>
</svg>
