<svg width="16" height="21" viewBox="0 0 16 21" fill="none" xmlns="http://www.w3.org/2000/svg">
<path d="M14.3891 16.4889L14.3953 15.8461H14.3891V16.4889ZM15.0853 14.9691L14.5606 15.3406L14.5692 15.3527L14.5783 15.3644L15.0853 14.9691ZM13.479 11.0974L14.1122 10.9863L14.1108 10.9788L13.479 11.0974ZM12.1011 4.4368L12.6083 4.04175L12.607 4.04011L12.1011 4.4368ZM8.00021 2.40025L8.00168 1.75738L7.9981 1.75739L8.00021 2.40025ZM3.8993 4.4368L3.39381 4.03962L3.39215 4.04175L3.8993 4.4368ZM2.52507 11.0974L1.89316 10.979L1.89188 10.9863L2.52507 11.0974ZM0.918786 14.9691L1.42228 15.3688L1.43324 15.355L1.44343 15.3406L0.918786 14.9691ZM1.61496 16.4889V15.846L1.60276 15.8462L1.61496 16.4889ZM7.36098 2.40026C7.36098 2.7553 7.6488 3.04311 8.00384 3.04311C8.35888 3.04311 8.64669 2.7553 8.64669 2.40026H7.36098ZM8.64669 1.14258C8.64669 0.787538 8.35888 0.499721 8.00384 0.499721C7.6488 0.499721 7.36098 0.787538 7.36098 1.14258H8.64669ZM8.00022 19.9997L8.00156 19.3569H8.00022L8.00022 19.9997ZM14.3891 16.4889L14.3828 17.1318C14.6804 17.1347 14.9703 17.0485 15.2183 16.8866L14.8669 16.3483L14.5156 15.8099C14.477 15.8351 14.4354 15.8465 14.3953 15.8461L14.3891 16.4889ZM14.8669 16.3483L15.2183 16.8866C15.4659 16.725 15.6603 16.4956 15.7826 16.2286L15.1982 15.9609L14.6137 15.6932C14.5899 15.7452 14.5545 15.7845 14.5156 15.8099L14.8669 16.3483ZM15.1982 15.9609L15.7826 16.2286C15.9049 15.9618 15.9513 15.6661 15.9181 15.3751L15.2794 15.4478L14.6407 15.5205C14.6475 15.5808 14.6376 15.641 14.6137 15.6932L15.1982 15.9609ZM15.2794 15.4478L15.9181 15.3751C15.885 15.084 15.7732 14.8059 15.5922 14.5738L15.0853 14.9691L14.5783 15.3644C14.611 15.4063 14.6338 15.4603 14.6407 15.5205L15.2794 15.4478ZM15.0853 14.9691L15.6099 14.5976C14.855 13.5315 14.342 12.2962 14.1122 10.9863L13.479 11.0974L12.8458 11.2085C13.108 12.7031 13.694 14.1168 14.5606 15.3406L15.0853 14.9691ZM13.479 11.0974L14.1108 10.9788C14.012 10.4523 13.9697 9.90842 13.9404 9.33816C13.9118 8.78193 13.895 8.17511 13.8438 7.59255C13.7397 6.40765 13.4846 5.1668 12.6083 4.04175L12.1011 4.4368L11.594 4.83184C12.2478 5.67116 12.4677 6.62074 12.563 7.70511C12.6115 8.25718 12.6255 8.80471 12.6563 9.40413C12.6864 9.98953 12.732 10.6026 12.8471 11.216L13.479 11.0974ZM12.1011 4.4368L12.607 4.04011C12.0511 3.33116 11.3505 2.75732 10.5541 2.3618L10.2682 2.93757L9.98223 3.51334C10.6037 3.82197 11.155 4.27209 11.5953 4.83349L12.1011 4.4368ZM10.2682 2.93757L10.5541 2.3618C9.75753 1.96622 8.88583 1.75941 8.00168 1.75739L8.00021 2.40025L7.99875 3.0431C8.68368 3.04467 9.36088 3.20477 9.98223 3.51334L10.2682 2.93757ZM8.00021 2.40025L7.9981 1.75739C7.11429 1.7603 6.24307 1.9675 5.44682 2.36292L5.73275 2.93869L6.01869 3.51445C6.64013 3.20584 7.31732 3.04535 8.00233 3.0431L8.00021 2.40025ZM5.73275 2.93869L5.44682 2.36292C4.65071 2.75827 3.95021 3.33148 3.39381 4.03963L3.8993 4.4368L4.40479 4.83397C4.84557 4.27297 5.39711 3.82313 6.01869 3.51445L5.73275 2.93869ZM3.8993 4.4368L3.39215 4.04175C2.51566 5.16697 2.2616 6.40705 2.1584 7.59161C2.10767 8.17385 2.09133 8.78071 2.06309 9.33695C2.03413 9.90728 1.99203 10.4516 1.8932 10.979L2.52507 11.0974L3.15693 11.2158C3.27203 10.6014 3.31741 9.98782 3.34715 9.40215C3.3776 8.80237 3.39118 8.25513 3.43926 7.7032C3.53368 6.61944 3.7528 5.67099 4.40646 4.83184L3.8993 4.4368ZM2.52507 11.0974L1.89188 10.9863C1.66206 12.2962 1.14906 13.5315 0.394142 14.5976L0.918786 14.9691L1.44343 15.3406C2.31005 14.1168 2.89603 12.7031 3.15825 11.2085L2.52507 11.0974ZM0.918786 14.9691L0.415287 14.5694C0.231304 14.8012 0.117069 15.0802 0.0825188 15.3727L0.720936 15.4481L1.35935 15.5235C1.36644 15.4635 1.38954 15.4101 1.42228 15.3688L0.918786 14.9691ZM0.720936 15.4481L0.0825188 15.3727C0.0479724 15.6651 0.0940388 15.9627 0.216902 16.2309L0.80136 15.9632L1.38582 15.6955C1.36203 15.6435 1.35226 15.5835 1.35935 15.5235L0.720936 15.4481ZM0.80136 15.9632L0.216902 16.2309C0.339843 16.4993 0.535841 16.7296 0.785656 16.8911L1.13456 16.3511L1.48347 15.8112C1.44482 15.7862 1.40953 15.7472 1.38582 15.6955L0.80136 15.9632ZM1.13456 16.3511L0.785656 16.8911C1.03582 17.0527 1.32801 17.1374 1.62715 17.1317L1.61496 16.4889L1.60276 15.8462C1.56306 15.847 1.52177 15.8359 1.48347 15.8112L1.13456 16.3511ZM1.61496 16.4889V17.1318H14.3891V16.4889V15.8461H1.61496V16.4889ZM8.00384 2.40026H8.64669V1.14258H8.00384H7.36098V2.40026H8.00384ZM9.83493 18.0771L9.19208 18.0784C9.1924 18.2504 9.16027 18.4202 9.09817 18.5777L9.69624 18.8135L10.2943 19.0492C10.4163 18.7398 10.4784 18.4091 10.4778 18.0759L9.83493 18.0771ZM9.69624 18.8135L9.09817 18.5777C9.0361 18.7352 8.94569 18.8764 8.83354 18.9939L9.29862 19.4377L9.76369 19.8815C9.99247 19.6418 10.1723 19.3587 10.2943 19.0492L9.69624 18.8135ZM9.29862 19.4377L8.83354 18.9939C8.72146 19.1114 8.59 19.2028 8.44754 19.2644L8.7029 19.8544L8.95825 20.4443C9.26142 20.3131 9.53485 20.1213 9.76369 19.8815L9.29862 19.4377ZM8.7029 19.8544L8.44754 19.2644C8.30514 19.3261 8.15368 19.3572 8.00156 19.3569L8.00022 19.9997L7.99889 20.6426C8.32891 20.6433 8.65503 20.5756 8.95825 20.4443L8.7029 19.8544ZM8.00022 19.9997L8.00022 19.3569C7.84828 19.3569 7.69705 19.3255 7.55491 19.2637L7.29865 19.8533L7.04239 20.4429C7.34504 20.5744 7.67063 20.6426 8.00022 20.6426L8.00022 19.9997ZM7.29865 19.8533L7.55491 19.2637C7.4127 19.2019 7.28149 19.1104 7.16966 18.993L6.70415 19.4364L6.23864 19.8797C6.46696 20.1195 6.73982 20.3113 7.04239 20.4429L7.29865 19.8533ZM6.70415 19.4364L7.16966 18.993C7.05777 18.8755 6.96759 18.7345 6.90566 18.5771L6.30748 18.8126L5.70929 19.0481C5.83098 19.3572 6.01037 19.6401 6.23864 19.8797L6.70415 19.4364ZM6.30748 18.8126L6.90566 18.5771C6.84372 18.4198 6.81167 18.2502 6.81199 18.0784L6.16914 18.0771L5.52628 18.0759C5.52565 18.4087 5.58762 18.7389 5.70929 19.0481L6.30748 18.8126Z" fill="#093030"/>
</svg>
