<svg width="42" height="31" viewBox="0 0 42 31" fill="none" xmlns="http://www.w3.org/2000/svg">
<path d="M19.25 18.0833V12.7229L16.45 14.7896L14 12.9167L21 7.75L28 12.9167L25.55 14.7896L22.75 12.7229V18.0833H19.25ZM8.75 27.125C7.7875 27.125 6.95625 26.8774 6.25625 26.3823C5.58542 25.8656 5.25 25.2521 5.25 24.5417V6.45833C5.25 5.74792 5.58542 5.14514 6.25625 4.65C6.95625 4.13333 7.7875 3.875 8.75 3.875H33.25C34.2125 3.875 35.0292 4.13333 35.7 4.65C36.4 5.14514 36.75 5.74792 36.75 6.45833V24.5417C36.75 25.2521 36.4 25.8656 35.7 26.3823C35.0292 26.8774 34.2125 27.125 33.25 27.125H8.75ZM8.75 24.5417H33.25V20.6667H28C27.125 21.4847 26.075 22.1198 24.85 22.5719C23.6542 23.024 22.3708 23.25 21 23.25C19.6292 23.25 18.3313 23.024 17.1063 22.5719C15.9104 22.1198 14.875 21.4847 14 20.6667H8.75V24.5417ZM21 20.6667C22.1083 20.6667 23.1146 20.4299 24.0188 19.9563C24.9229 19.4826 25.55 18.8583 25.9 18.0833H33.25V6.45833H8.75V18.0833H16.1C16.45 18.8583 17.0771 19.4826 17.9813 19.9563C18.8854 20.4299 19.8917 20.6667 21 20.6667ZM8.75 24.5417H14C14.875 24.5417 15.9104 24.5417 17.1063 24.5417C18.3313 24.5417 19.6292 24.5417 21 24.5417C22.3708 24.5417 23.6542 24.5417 24.85 24.5417C26.075 24.5417 27.125 24.5417 28 24.5417H33.25H8.75Z" fill="#1D1B20"/>
</svg>
