<svg width="39" height="29" viewBox="0 0 39 29" fill="none" xmlns="http://www.w3.org/2000/svg">
<path d="M8.125 25.375C7.23125 25.375 6.45938 25.1434 5.80938 24.6802C5.18646 24.1969 4.875 23.6229 4.875 22.9583V6.04167C4.875 5.37708 5.18646 4.8132 5.80938 4.35C6.45938 3.86667 7.23125 3.625 8.125 3.625H30.875C31.7688 3.625 32.5271 3.86667 33.15 4.35C33.8 4.8132 34.125 5.37708 34.125 6.04167V22.9583C34.125 23.6229 33.8 24.1969 33.15 24.6802C32.5271 25.1434 31.7688 25.375 30.875 25.375H8.125ZM8.125 22.9583H30.875V6.04167H8.125V22.9583ZM9.75 20.5417H29.25L23.1563 14.5L18.2813 19.3333L14.625 15.7083L9.75 20.5417ZM8.125 22.9583V6.04167V22.9583Z" fill="#1D1B20"/>
</svg>
