<svg width="51" height="44" viewBox="0 0 51 44" fill="none" xmlns="http://www.w3.org/2000/svg">
<g clip-path="url(#clip0_87_466)">
<path d="M20.9 31.5898H30.9C31.8195 31.5872 32.7005 31.2207 33.3507 30.5706C34.0009 29.9204 34.3673 29.0393 34.37 28.1198C34.3647 27.2021 33.9972 26.3236 33.3473 25.6755C32.6974 25.0275 31.8178 24.6624 30.9 24.6598H24.5599C23.1372 24.643 21.725 24.4138 20.37 23.9798C17.86 23.4398 13.8 23.4098 11.94 28.1198H7.94003M34.3199 28.1198L43.3199 22.8198C44.1053 22.3439 45.0476 22.1988 45.9398 22.4162C46.832 22.6337 47.6015 23.1959 48.0799 23.9798C48.554 24.7647 48.6993 25.705 48.484 26.5963C48.2686 27.4876 47.7102 28.2579 46.93 28.7398L35.16 37.5998C33.0617 39.179 30.5062 40.0319 27.88 40.0298H7.87997M30.9801 12.4298L28.5299 14.8898C28.515 14.9053 28.4971 14.9175 28.4774 14.9259C28.4576 14.9343 28.4363 14.9385 28.4149 14.9385C28.3934 14.9385 28.3724 14.9343 28.3526 14.9259C28.3329 14.9175 28.3148 14.9053 28.2999 14.8898L26.7899 12.4198H20.19C19.6096 13.9299 18.5849 15.2286 17.2513 16.1445C15.9177 17.0603 14.3379 17.5503 12.7201 17.5498C10.5983 17.5498 8.56337 16.707 7.06308 15.2067C5.56279 13.7064 4.72006 11.6715 4.72006 9.54981C4.72006 7.42808 5.56279 5.39324 7.06308 3.89295C8.56337 2.39266 10.5983 1.54981 12.7201 1.54981C14.3367 1.54852 15.9156 2.03707 17.2491 2.95105C18.5826 3.86503 19.608 5.16155 20.19 6.6698H34.9L38.66 9.85981L33.66 15.0298L30.9801 12.4798M7.89999 26.3498C7.89999 26.2066 7.84306 26.0692 7.74179 25.968C7.64052 25.8667 7.50317 25.8098 7.35995 25.8098H2.08994C1.94672 25.8098 1.80937 25.8667 1.7081 25.968C1.60683 26.0692 1.5499 26.2066 1.5499 26.3498V41.7798C1.5499 41.923 1.60683 42.0604 1.7081 42.1616C1.80937 42.2629 1.94672 42.3198 2.08994 42.3198H7.35995C7.50317 42.3198 7.64052 42.2629 7.74179 42.1616C7.84306 42.0604 7.89999 41.923 7.89999 41.7798V26.3498Z" stroke="#F1FFF3" stroke-width="3" stroke-linecap="round" stroke-linejoin="round"/>
<path d="M10.57 11.1999C11.7629 11.1999 12.73 10.2328 12.73 9.03988C12.73 7.84695 11.7629 6.87988 10.57 6.87988C9.37704 6.87988 8.40997 7.84695 8.40997 9.03988C8.40997 10.2328 9.37704 11.1999 10.57 11.1999Z" fill="#F1FFF3"/>
</g>
<defs>
<clipPath id="clip0_87_466">
<rect width="50.09" height="43.82" fill="white"/>
</clipPath>
</defs>
</svg>
