<svg width="105" height="98" viewBox="0 0 105 98" fill="none" xmlns="http://www.w3.org/2000/svg">
<rect width="105" height="97.6316" rx="25.7895" fill="#6DB6FE"/>
<path d="M60.4934 34.5088C60.4934 37.5512 54.1149 40.0176 46.2467 40.0176C38.3785 40.0176 32 37.5512 32 34.5088C32 31.4664 38.3785 29 46.2467 29C54.1149 29 60.4934 31.4664 60.4934 34.5088ZM60.4934 34.5088V42.7765M32 34.5179V43.9185C32 46.9606 38.3439 49.3999 46.2467 49.3999C47.3161 49.3999 48.3492 49.3542 49.3461 49.2628M32 42.7857V53.3282C32 56.3703 38.3439 58.8095 46.2467 58.8095C46.9355 58.8095 47.6061 58.7913 48.2586 58.7547M32 51.4919V62.0801C32 65.1223 38.3439 67.5615 46.2467 67.5615C48.9956 67.5855 51.7364 67.257 54.4032 66.584M57.2942 58.6268C57.2942 59.0511 57.3773 59.4712 57.5387 59.8631C57.7 60.2549 57.9365 60.6108 58.2345 60.9104C58.5325 61.21 58.8861 61.4474 59.2753 61.6089C59.6645 61.7704 60.0815 61.8529 60.5024 61.8517C61.3509 61.8517 62.1646 61.512 62.7646 60.9072C63.3645 60.3024 63.7016 59.4821 63.7016 58.6268C63.6379 58.0248 63.4127 57.4516 63.0502 56.9688C62.6878 56.4859 62.2018 56.1116 61.6443 55.8861C60.0312 54.9726 57.2942 54.6163 57.2942 52.2319C57.293 51.8069 57.3752 51.3858 57.536 50.9929C57.6968 50.6 57.933 50.243 58.2312 49.9425C58.5293 49.6419 58.8835 49.4037 59.2733 49.2416C59.6631 49.0795 60.0808 48.9967 60.5024 48.9979C60.9233 48.9979 61.3401 49.0816 61.7289 49.2442C62.1176 49.4069 62.4707 49.6453 62.7679 49.9457C63.0651 50.2461 63.3004 50.6027 63.4607 50.995C63.6209 51.3873 63.7028 51.8076 63.7016 52.2319M60.4934 48.9339V47.4083M60.4934 63.3682V61.8517M73 55.3928C73 62.3556 67.4006 68 60.4934 68C53.5861 68 47.9867 62.3556 47.9867 55.3928C47.9867 48.4301 53.5861 42.7857 60.4934 42.7857C67.4006 42.7857 73 48.4301 73 55.3928Z" stroke="#F1FFF3" stroke-width="3" stroke-linecap="round" stroke-linejoin="round"/>
</svg>
